<?xml version="1.0" encoding="UTF-8"?>
<svg width="16" height="16" viewBox="0 0 16 16" xmlns="http://www.w3.org/2000/svg" fill="none">
  <g transform="translate(0.5 0)" fill="#7A7A7A" fill-rule="nonzero">
    <path d="M14.696431 7.05957497C14.6699907 6.79076468 14.6259234 6.48229387 14.5377889 6.13856924 14.4496544 5.79925134 14.3174526 5.42467964 14.1235567 5.03688776 13.9296607 4.64909587 13.6784773 4.24808381 13.3523796 3.8558852 13.2245846 3.70164979 13.0835693 3.55182111 12.9337407 3.40639916 13.1584837 2.51183379 12.6605236 1.73625002 12.6605236 1.73625002 11.8012121 1.68336931 11.2547781 2.00506031 11.0520687 2.15048226 11.0168149 2.13726208 10.9859678 2.11963518 10.950714 2.106415 10.805292 2.04912756 10.6554633 1.99184013 10.4968212 1.94336614 10.3425858 1.89489216 10.1839437 1.8508249 10.0208948 1.81116436 9.85784594 1.77150383 9.69479708 1.74065675 9.52734149 1.71421639 9.49649441 1.70980967 9.47005406 1.70540294 9.43920698 1.70099622 9.06463527 0.502366758 7.98939414 0 7.98939414 0 6.78635796 0.762363589 6.56161493 1.82879127 6.56161493 1.82879127 6.56161493 1.82879127 6.55720821 1.8508249 6.54839476 1.89048543 6.48229387 1.90811233 6.41619298 1.93014596 6.35009209 1.94777287 6.25755084 1.97421322 6.1650096 2.00946703 6.07687508 2.04472084 5.98433383 2.07997465 5.89619932 2.11522845 5.80365807 2.15488899 5.62298231 2.23421005 5.44230654 2.32234457 5.26603751 2.41929254 5.09417519 2.51624051 4.92671961 2.62200194 4.76367075 2.73217009 4.74163712 2.72335663 4.71960349 2.71454318 4.71960349 2.71454318 3.05386108 2.07997465 1.57760789 2.84233823 1.57760789 2.84233823 1.44099938 4.61384207 2.24302351 5.72874373 2.40166564 5.93145312 2.36200511 6.04162127 2.3267513 6.15178942 2.29149749 6.26195757 2.16810917 6.66296963 2.07556792 7.07279514 2.01828048 7.50024756 2.00946703 7.56194172 2.00065358 7.62363589 1.99624685 7.68533005 0.453892772 8.44769364 0 10.0032679 0 10.0032679 1.28235725 11.4795211 2.78064407 11.5720623 2.78064407 11.5720623 2.78064407 11.5720623 2.7850508 11.5676556 2.7850508 11.5676556 2.97454001 11.9069735 3.19487631 12.2286645 3.44165296 12.5327286 3.54741439 12.6605236 3.65317581 12.7795052 3.76775068 12.8984868 3.30063773 14.2381315 3.83385157 15.3486265 3.83385157 15.3486265 5.26163078 15.4015072 6.20026341 14.7228714 6.39856607 14.568636 6.5395813 14.61711 6.68500326 14.6611772 6.83042522 14.696431 7.27109781 14.8110059 7.72058386 14.8771068 8.1700699 14.8947337 8.28023805 14.8991404 8.39481293 14.9035471 8.50498108 14.8991404H8.55786179H8.59311559H8.66362321L8.73413082 14.8947337 8.73413082 14.8991404C9.40835989 15.8598067 10.5893624 15.9964152 10.5893624 15.9964152 11.4310471 15.1106633 11.4795211 14.2293181 11.4795211 14.0398289 11.4795211 14.0398289 11.4795211 14.0354221 11.4795211 14.0266087 11.4795211 14.0089818 11.4795211 14.0001683 11.4795211 14.0001683 11.4795211 13.9869482 11.4795211 13.973728 11.4795211 13.9605078 11.6557901 13.8371195 11.8232457 13.7049177 11.9818878 13.5594957 12.316799 13.2554316 12.6120497 12.9073003 12.8588263 12.5327286 12.8808599 12.4974748 12.9028936 12.462221 12.9249272 12.4269672 13.87678 12.4798479 14.5510091 11.8364659 14.5510091 11.8364659 14.3923669 10.8449526 13.828306 10.3602127 13.7093244 10.2676715 13.7093244 10.2676715 13.7049177 10.2632647 13.6961042 10.258858 13.6872908 10.2544513 13.6872908 10.2500445 13.6872908 10.2500445 13.6828841 10.2456378 13.6740706 10.2412311 13.6652572 10.2368244 13.6696639 10.1751302 13.6740706 10.1178428 13.6784773 10.0561486 13.6872908 9.95038719 13.6872908 9.84021904 13.6872908 9.73445761V9.65513655V9.61547601V9.59344238C13.6872908 9.56700203 13.6872908 9.57581548 13.6872908 9.56700203L13.6828841 9.50090114 13.6784773 9.41276662C13.6784773 9.38191954 13.6740706 9.35547918 13.6696639 9.32903883 13.6652572 9.30259847 13.6652572 9.27175139 13.6608504 9.24531103L13.652037 9.16158324 13.6388168 9.07785545C13.6211899 8.9676873 13.603563 8.86192588 13.5771226 8.75175773 13.4757679 8.32430531 13.3083124 7.91888652 13.0923828 7.55312827 12.8720465 7.18737002 12.5988295 6.86567902 12.2859519 6.59246201 11.9774811 6.31924501 11.6293498 6.09890871 11.2679982 5.93585985 10.90224 5.77281099 10.5232616 5.66704957 10.1442831 5.61857558 9.95479391 5.59213523 9.7653047 5.58332177 9.57581548 5.5877285H9.50530786H9.48768096C9.48327424 5.5877285 9.46124061 5.5877285 9.46564733 5.5877285H9.43480025L9.36429263 5.59213523C9.33785228 5.59213523 9.31141192 5.59654195 9.28937829 5.59654195 9.19243032 5.6053554 9.09548235 5.61857558 9.00294111 5.63620248 8.62396268 5.7067101 8.26701787 5.8433186 7.95414033 6.03280782 7.64126279 6.22229704 7.36804578 6.45585351 7.14770948 6.72025707 6.92737319 6.98466062 6.75551087 7.27991126 6.63652927 7.58397535 6.51754767 7.88803944 6.45144678 8.20532371 6.43381988 8.5093878 6.42941315 8.58430214 6.42941315 8.66362321 6.42941315 8.73853755 6.42941315 8.75616445 6.42941315 8.77819808 6.42941315 8.79582499L6.43381988 8.85751915C6.43822661 8.89277296 6.43822661 8.93243349 6.44263333 8.9676873 6.45585351 9.12192271 6.48670059 9.27175139 6.52636113 9.41276662 6.61008892 9.69920381 6.7422907 9.95920064 6.90533956 10.1795369 7.06838842 10.3998732 7.26669108 10.580549 7.4738072 10.725971 7.68092332 10.8669862 7.90566635 10.9683409 8.12600264 11.0344418 8.34633894 11.1005427 8.56667524 11.126983 8.77379136 11.126983 8.80023171 11.126983 8.82667207 11.126983 8.8487057 11.126983 8.86192588 11.126983 8.87514605 11.126983 8.88836623 11.126983 8.90158641 11.126983 8.91480659 11.126983 8.92802677 11.1225763 8.9500604 11.1225763 8.97209403 11.1181696 8.99412766 11.1181696 8.99853438 11.1181696 9.00734783 11.1181696 9.01175456 11.1137628L9.03378819 11.1093561C9.04700837 11.1093561 9.06022854 11.1049494 9.07344872 11.1049494 9.09988908 11.1005427 9.12192271 11.0961359 9.14836306 11.0917292 9.17480342 11.0873225 9.19683705 11.0829158 9.21887068 11.0741023 9.26734466 11.0652888 9.31141192 11.0476619 9.35547918 11.0344418 9.4436137 11.0035947 9.53174822 10.9683409 9.60666256 10.9286803 9.68598363 10.8890198 9.75649124 10.8405458 9.82699886 10.7964786 9.84462576 10.7832584 9.86665939 10.7700382 9.8842863 10.7524113 9.95479391 10.6951239 9.96801409 10.5893624 9.91072665 10.5188548 9.86225267 10.4571607 9.77411815 10.4395338 9.70361053 10.4791943 9.68598363 10.4880078 9.66835672 10.4968212 9.65072982 10.5056347 9.58903566 10.5364817 9.52734149 10.5629221 9.46124061 10.5849557 9.39513972 10.6069894 9.3246321 10.6246163 9.25412449 10.6378364 9.21887068 10.6422432 9.18361687 10.6466499 9.14395634 10.6510566 9.12632943 10.6510566 9.10870253 10.6554633 9.0866689 10.6554633 9.069042 10.6554633 9.04700837 10.6554633 9.03378819 10.6554633 9.01616128 10.6554633 8.99853438 10.6554633 8.98090748 10.6554633 8.95887385 10.6554633 8.93684022 10.6554633 8.91480659 10.6510566 8.91480659 10.6510566 8.90158641 10.6510566 8.91039986 10.6510566L8.90158641 10.6510566 8.88836623 10.6510566C8.87955278 10.6510566 8.8663326 10.6510566 8.85751915 10.6466499 8.83548552 10.6422432 8.81785862 10.6422432 8.79582499 10.6378364 8.63277613 10.6158028 8.46972727 10.5673288 8.31549186 10.4968212 8.15684973 10.4263136 8.00702104 10.3293656 7.87041254 10.2059773 7.73380403 10.082589 7.61482243 9.93716701 7.52228119 9.76971142 7.42973994 9.60225584 7.36363906 9.41717335 7.33279197 9.2232774 7.3195718 9.12632943 7.31075834 9.02497474 7.31516507 8.92802677 7.31516507 8.90158641 7.3195718 8.87514605 7.3195718 8.8487057 7.3195718 8.85751915 7.3195718 8.84429897 7.3195718 8.84429897V8.83548552V8.81345189C7.3195718 8.80023171 7.32397852 8.78701154 7.32397852 8.77379136 7.32838525 8.72091065 7.3371987 8.66802994 7.34601215 8.61514922 7.42092649 8.19210353 7.63244934 7.77787129 7.95854706 7.46499375 8.04227485 7.38567268 8.13040937 7.31516507 8.22295061 7.24906418 8.31549186 7.18296329 8.41684656 7.12567585 8.52260798 7.07720187 8.6283694 7.02872788 8.73413082 6.98906735 8.8487057 6.95822027 8.95887385 6.92737319 9.07344872 6.90974628 9.19243032 6.89652611 9.24971776 6.89211938 9.3070052 6.88771265 9.36869936 6.88771265 9.38632626 6.88771265 9.39513972 6.88771265 9.40835989 6.88771265H9.45683388L9.48768096 6.88771265C9.50090114 6.88771265 9.48768096 6.88771265 9.49208769 6.88771265H9.50530786L9.55378185 6.89211938C9.6815769 6.90093283 9.80496523 6.91855973 9.92835356 6.94940682 10.1751302 7.00228753 10.4175001 7.09482877 10.6422432 7.2182171 11.0917292 7.46940048 11.4751144 7.85719236 11.7086708 8.32430531 11.8276524 8.55786179 11.9113802 8.80904517 11.9510408 9.069042 11.9598542 9.13514289 11.9686677 9.20124377 11.9730744 9.26734466L11.9774811 9.31581865 11.9818878 9.36429263C11.9818878 9.38191954 11.9818878 9.39954644 11.9818878 9.41276662 11.9818878 9.43039352 11.9818878 9.44802043 11.9818878 9.46124061V9.50530786V9.55378185C11.9818878 9.58462893 11.9774811 9.63750964 11.9774811 9.66835672 11.9730744 9.73886434 11.9642609 9.81377868 11.9554475 9.8842863 11.946634 9.95479391 11.9334139 10.0253015 11.9201937 10.0958091 11.9069735 10.1663168 11.8893466 10.2368244 11.8717197 10.3029253 11.8364659 10.4395338 11.7923986 10.5761423 11.7395179 10.7127508 11.6337565 10.9771543 11.4927413 11.2327444 11.3252857 11.4663009 10.9859678 11.9334139 10.5232616 12.3123923 9.99445444 12.5547622 9.73005089 12.6737438 9.45242715 12.7618783 9.16598997 12.8059456 9.02497474 12.832386 8.87955278 12.8456061 8.73413082 12.8500129H8.70769047H8.68565684H8.63718285H8.56667524H8.53142143C8.54904833 12.8500129 8.5270147 12.8500129 8.5270147 12.8500129H8.51379453C8.43447346 12.8500129 8.35955912 12.8456061 8.28023805 12.8367927 7.97176724 12.8147591 7.66770315 12.7574716 7.36804578 12.6737438 7.07279514 12.590016 6.78635796 12.4710344 6.51314095 12.3300192 5.97111366 12.0391753 5.48196708 11.6425699 5.10298865 11.1622368 4.91349943 10.9242736 4.74604384 10.6642768 4.60943534 10.3954665 4.47282683 10.1266562 4.36265869 9.84021904 4.28333762 9.55378185 4.20401655 9.26293794 4.15554257 8.9676873 4.13350894 8.66802994L4.12910221 8.6107425V8.59752232V8.58430214V8.55786179V8.5093878V8.49616762V8.47854072V8.44328691V8.3727793V8.35955912C4.12910221 8.35955912 4.12910221 8.36396584 4.12910221 8.35515239V8.32871204C4.12910221 8.29345823 4.12910221 8.2537977 4.12910221 8.21854389 4.13350894 8.07312193 4.14672911 7.91888652 4.16435602 7.76905784 4.18198292 7.61922916 4.20842328 7.46499375 4.23927036 7.31516507 4.27011744 7.16533639 4.30537125 7.01550771 4.34943851 6.86567902 4.4331663 6.57042839 4.53892772 6.2839912 4.66231605 6.01518092 4.91349943 5.47756035 5.23959715 4.99722722 5.63179576 4.61384207 5.72874373 4.51689409 5.83009843 4.42875958 5.93585985 4.34062506 6.04162127 4.25689726 6.15178942 4.1775762 6.26636429 4.10266186 6.37653244 4.02774751 6.49551404 3.96164663 6.61449564 3.89995246 6.67178308 3.86910538 6.73347725 3.8382583 6.79517141 3.81181794 6.82601849 3.79859777 6.85686557 3.78537759 6.88771265 3.77215741 6.91855973 3.75893723 6.94940682 3.74571705 6.9802539 3.73249688 7.10364222 3.67961616 7.23143728 3.63554891 7.36363906 3.59588837 7.39448614 3.58707492 7.42973994 3.57826147 7.46058703 3.56504129 7.49143411 3.55622784 7.52668792 3.54741439 7.557535 3.53860093 7.62363589 3.52097403 7.68973678 3.50334713 7.75583766 3.49012695 7.78668475 3.4813135 7.82193855 3.47690677 7.85719236 3.46809332 7.89244617 3.45927987 7.92329325 3.45487314 7.95854706 3.44605969 7.99380087 3.44165296 8.02464795 3.43283951 8.05990175 3.42843279L8.10837574 3.41961933 8.16125645 3.41080588C8.19651026 3.40639916 8.22735734 3.40199243 8.26261115 3.3975857 8.30227168 3.39317898 8.33752549 3.38877225 8.37718602 3.38436553 8.4080331 3.3799588 8.46091382 3.37555207 8.4917609 3.37114535 8.51379453 3.36673862 8.54023488 3.36673862 8.56226851 3.3623319L8.6107425 3.35792517 8.63277613 3.35351844 8.65921648 3.35351844C8.69887702 3.34911172 8.73413082 3.34911172 8.77379136 3.34470499L8.8310788 3.34029827C8.8310788 3.34029827 8.85311242 3.34029827 8.83548552 3.34029827H8.8487057L8.87514605 3.34029827C8.90599314 3.34029827 8.94124694 3.33589154 8.97209403 3.33589154 9.09988908 3.33148481 9.23209086 3.33148481 9.35988591 3.33589154 9.61547601 3.34470499 9.86665939 3.37555207 10.1090293 3.41961933 10.5981759 3.51216058 11.0564754 3.66639599 11.4751144 3.87351211 11.8937533 4.0762215 12.2639183 4.32740488 12.590016 4.60062189 12.6120497 4.61824879 12.6296766 4.63587569 12.6517102 4.6535026 12.6693371 4.6711295 12.6913707 4.68875641 12.7089976 4.70638331 12.7486582 4.74163712 12.783912 4.77689093 12.8235725 4.81214473 12.863233 4.84739854 12.8984868 4.88265235 12.9337407 4.91790616 12.9689945 4.95315996 13.0042483 4.98841377 13.0395021 5.0280743 13.1761106 5.17349626 13.3039056 5.31891822 13.4184805 5.4687469 13.6476303 5.76399754 13.8327127 6.0636549 13.9781347 6.34568536 13.9869482 6.36331227 13.9957616 6.38093917 14.0045751 6.39856607 14.0133885 6.41619298 14.022202 6.43381988 14.0310154 6.45144678 14.0486423 6.48670059 14.0662692 6.5219544 14.0794894 6.55720821 14.0971163 6.59246201 14.1103365 6.6233091 14.1279634 6.6585629 14.1411836 6.69381671 14.1588105 6.72466379 14.1720306 6.7599176 14.2249114 6.89211938 14.2777921 7.01991443 14.3174526 7.13889603 14.3835535 7.33279197 14.4320275 7.50465429 14.471688 7.65448297 14.4849082 7.71617713 14.5421956 7.75583766 14.6038898 7.74702421 14.6699907 7.74261749 14.7184647 7.68973678 14.7184647 7.62363589 14.7228714 7.46499375 14.7184647 7.27550454 14.696431 7.05957497Z"/>
  </g>
</svg>
